<svg width="201" height="201" fill="none" xmlns="http://www.w3.org/2000/svg"><path d="M83.541 111.501a3.305 3.305 0 003.303-3.499c-.85-14.52.796-22.259 2.643-26.1v61.99a5.108 5.108 0 0010.217 0v-37.299h1.916v37.299a5.108 5.108 0 0010.217 0v-61.99c1.847 3.843 3.492 11.582 2.642 26.101a3.304 3.304 0 002.544 3.407v1.643h-2.858v16.665h7.575v-16.665h-2.858v-1.745a3.304 3.304 0 002.197-2.92c1.021-17.456-1.162-28.844-6.489-33.85-2.319-2.178-4.584-2.553-5.747-2.58-.067-.005-.132-.01-.2-.01H92.68c-.07 0-.137.006-.206.01-1.164.029-3.426.405-5.74 2.58-5.328 5.005-7.51 16.394-6.49 33.85a3.306 3.306 0 003.297 3.113zm15.55-36.172h3.14l.786 3.099-.12.188a3.485 3.485 0 01-4.47.002l-.12-.19.784-3.099zm-.094 5.032c.536.2 1.1.306 1.664.305h.003c.563 0 1.126-.105 1.662-.305l2.261 16.66-3.925 4.958-3.925-4.958 2.26-16.66z" fill="url(#paint0_linear)"/><path d="M100.661 69.593a9.297 9.297 0 10-9.296-9.297 9.297 9.297 0 009.296 9.297z" fill="url(#paint1_linear)"/><path d="M145.307 181.638a92.505 92.505 0 0045.007-103.681A92.5 92.5 0 1054.595 180.865l2.642-4.604a87.194 87.194 0 01-9.28-145.1 87.192 87.192 0 1194.786 145.828l2.564 4.649z" fill="url(#paint2_linear)"/><defs><linearGradient id="paint0_linear" x1="100.87" y1="71.948" x2="100.87" y2="149" gradientUnits="userSpaceOnUse"><stop stop-color="#FF006B"/><stop offset="1" stop-color="#FF003D"/></linearGradient><linearGradient id="paint1_linear" x1="100.661" y1="51" x2="100.661" y2="69.593" gradientUnits="userSpaceOnUse"><stop stop-color="#FF006B"/><stop offset="1" stop-color="#FF003D"/></linearGradient><linearGradient id="paint2_linear" x1="192.805" y1="108.479" x2="8.471" y2="92.797" gradientUnits="userSpaceOnUse"><stop stop-color="#FF006B"/><stop offset="1" stop-color="#FF003D"/></linearGradient></defs></svg>