<svg width="44" height="32" fill="none" xmlns="http://www.w3.org/2000/svg"><path d="M40.727 5.615L29.353 15.65l11.374 11.375 2.91 2.909V3.055l-2.91 2.56z" fill="url(#paint0_linear)"/><path d="M14.284 15.651L2.909 5.615 0 3.055v26.88l2.91-2.91 11.374-11.374z" fill="url(#paint1_linear)"/><path d="M21.818 18.43L39.403 2.91 42.618.072A1.444 1.444 0 0042.182 0H1.454c-.145 0-.305.03-.436.073l3.215 2.836 17.585 15.52z" fill="url(#paint2_linear)"/><path d="M27.157 17.586l-4.379 3.869c-.16.145-.334.247-.523.29a.387.387 0 01-.175.044c-.087.03-.174.03-.262.03-.087 0-.174-.015-.262-.03a.387.387 0 01-.174-.043 1.34 1.34 0 01-.524-.291l-4.378-3.87L4.975 29.092l-2.91 2.91h39.506l-2.91-2.91-11.505-11.505z" fill="url(#paint3_linear)"/><defs><linearGradient id="paint0_linear" x1="36.495" y1="3.055" x2="36.495" y2="29.935" gradientUnits="userSpaceOnUse"><stop stop-color="#FF006B"/><stop offset="1" stop-color="#FF003D"/></linearGradient><linearGradient id="paint1_linear" x1="7.142" y1="3.055" x2="7.142" y2="29.935" gradientUnits="userSpaceOnUse"><stop stop-color="#FF006B"/><stop offset="1" stop-color="#FF003D"/></linearGradient><linearGradient id="paint2_linear" x1="21.818" y1="0" x2="21.818" y2="18.429" gradientUnits="userSpaceOnUse"><stop stop-color="#FF006B"/><stop offset="1" stop-color="#FF003D"/></linearGradient><linearGradient id="paint3_linear" x1="21.818" y1="17.586" x2="21.818" y2="32" gradientUnits="userSpaceOnUse"><stop stop-color="#FF006B"/><stop offset="1" stop-color="#FF003D"/></linearGradient></defs></svg>