<svg width="55" height="75" fill="none" xmlns="http://www.w3.org/2000/svg"><path d="M27.125 0C12.173 0 0 12.173 0 27.125c0 14.521 24.91 45.332 25.98 46.64.283.342.7.55 1.145.55.446 0 .877-.208 1.16-.55 1.055-1.308 25.965-32.119 25.965-46.64C54.25 12.173 42.092 0 27.125 0zm0 38.644c-6.346 0-11.519-5.172-11.519-11.519 0-6.346 5.173-11.519 11.519-11.519s11.519 5.173 11.519 11.519-5.172 11.519-11.519 11.519z" fill="url(#paint0_linear)"/><defs><linearGradient id="paint0_linear" x1="27.125" y1="0" x2="27.125" y2="74.315" gradientUnits="userSpaceOnUse"><stop stop-color="#FF006B"/><stop offset="1" stop-color="#FF003D"/></linearGradient></defs></svg>