<svg width="14" height="13" fill="none" xmlns="http://www.w3.org/2000/svg"><path fill-rule="evenodd" clip-rule="evenodd" d="M.18 3.843C-.745.574 2.18-.304 2.523.086c.342.44 2.05 2.684 2.05 2.684s.438.292-.245.878a7.477 7.477 0 00-.975 1.073s-.196.146.195.83c.292.536 3.366 3.61 3.903 3.902.683.39.829.244.829.244s.488-.39 1.073-1.024c.586-.635.927-.196.927-.196s2.244 1.708 2.635 2.05c.439.292-.44 3.22-3.757 2.292-3.513-.975-8-5.464-8.976-8.976z" fill="url(#paint0_linear)"/><defs><linearGradient id="paint0_linear" x1="6.509" y1="0" x2="6.509" y2="13" gradientUnits="userSpaceOnUse"><stop stop-color="#fff"/><stop offset="1" stop-color="#fff"/></linearGradient></defs></svg>