<svg width="32" height="32" fill="none" xmlns="http://www.w3.org/2000/svg"><path fill-rule="evenodd" clip-rule="evenodd" d="M.444 9.446C-1.835 1.41 5.36-.747 6.2.212c.84 1.08 5.036 6.596 5.036 6.596s1.08.72-.6 2.158c-1.558 1.44-2.398 2.638-2.398 2.638s-.48.36.48 2.039c.72 1.319 8.274 8.874 9.593 9.593 1.679.96 2.039.6 2.039.6s1.199-.96 2.638-2.519c1.439-1.558 2.278-.48 2.278-.48s5.516 4.198 6.476 5.037c1.079.72-1.08 7.915-9.234 5.636C13.874 29.112 2.842 18.08.444 9.446z" fill="url(#paint0_linear)"/><defs><linearGradient id="paint0_linear" x1="16" y1="0" x2="16" y2="31.954" gradientUnits="userSpaceOnUse"><stop stop-color="#FF006B"/><stop offset="1" stop-color="#FF003D"/></linearGradient></defs></svg>