<svg width="672" height="565" fill="none" xmlns="http://www.w3.org/2000/svg"><path d="M1 1l167.39 176.377M1 1l17.264 80.931M1 1h51.98m358.027 563l148.374-37.827M411.007 564l173.614-156.584M411.007 564h82.705m-82.705 0l-5.969-25.291M536.279 1l-10.787 58.94M536.279 1h108.326M536.279 1l86.904 224.98M200.724 353.755l-11.53-62.898m11.53 62.898l104.861 18.693m-104.861-18.693l125.086-69.056m-125.086 69.056l15.157-69.056M168.39 177.377l-111.844 84.01m111.844-84.01l-11.773-64.217m11.773 64.217l20.804 113.48m-132.648-29.47L156.617 113.16M56.546 261.387L18.264 81.931m38.281 179.456l16.139 75.654m83.933-223.881L136.056 1H104.96m51.657 112.16L18.264 81.931m0 0l170.93 208.926M18.264 81.931L104.96 1m84.234 289.857L88.822 412.694m100.372-121.837L156.182 564m33.012-273.143l-116.51 46.184m16.138 75.653L191.266 564M88.822 412.694l16.138 75.653m-16.138-75.653l-16.138-75.653m16.138 75.653l216.763-40.246M191.266 564l84.563-62.458M191.266 564h35.084m-35.084 0h-35.084m119.647-62.458L261.433 564H226.35m49.479-62.458L104.96 488.347m170.869 13.195l29.756-129.094M104.96 488.347L121.098 564h35.084m-51.222-75.653l200.625-115.899m0 0l10.113-43.874m10.112-43.875l9.53-41.345 11.21 47.503m-20.74-6.158H215.881m109.929 0l-10.112 43.875m10.112-43.875L226.35 564m99.46-279.301L156.182 564m59.699-279.301l206.137-154.825M215.881 284.699l41.706-190.012m-41.706 190.012L407.714 65.437M215.881 284.7L343.699 1m78.319 128.874L257.587 94.687m164.431 35.187l-14.304-64.437m14.304 64.437L346.55 290.857m75.468-160.983L399.07 513.418m22.948-383.544l34.368 154.825M257.587 94.687l150.127-29.25m-150.127 29.25l10.282-46.844m139.845 17.594L393.41 1h-49.711m0 0H278.15l-10.281 46.843M343.699 1l2.851 289.857m0 0l52.52 222.561m-52.52-222.561l109.836-6.158m-109.836 6.158l212.831 235.316M399.07 513.418l57.316-228.719M399.07 513.418l191.815-135.472M399.07 513.418l5.968 25.291m51.348-254.01l15.33 69.056 4.508-24.632m83.157 197.05L551.341 564h-57.629m65.669-37.827l25.24-118.757m0 0L493.712 564m90.909-156.584l6.264-29.47M493.712 564l-17.488-234.877m0 0l114.661 48.823m-114.661-48.823l11.512-62.897m-11.512 62.897L644.605 1M476.224 329.123l137.19-57.179m-22.529 106.002l-84.634-212.884m84.634 212.884l22.529-106.002M506.251 165.062l149.231-91.048m-149.231 91.048l-18.515 101.164m18.515-101.164l19.241-105.123m129.99 14.075L671 1h-26.395m10.877 73.014L487.736 266.226M655.482 74.014L623.183 225.98m-135.447 40.246l135.447-40.246m0 0L525.492 59.94m97.691 166.04l-9.769 45.964M525.492 59.939L644.605 1m-31.191 270.944L405.038 538.709M267.869 47.843l47.829 280.731M156.182 564L104.96 1M72.684 337.041L104.96 1m0 0H52.98m0 0v260.387" stroke="#fff" stroke-opacity=".4"/></svg>