<svg width="201" height="201" viewBox="0 0 201 201" fill="none" xmlns="http://www.w3.org/2000/svg">
<path d="M83.541 111.501C83.6059 111.501 83.6716 111.499 83.7373 111.495C85.5599 111.389 86.9506 109.825 86.8444 108.002C85.9949 93.4828 87.6402 85.7435 89.4872 81.9021V143.892C89.4872 146.714 91.775 149 94.5954 149C97.4166 149 99.7044 146.714 99.7044 143.892V106.593H101.62V143.892C101.62 146.714 103.907 149 106.728 149C109.549 149 111.837 146.714 111.837 143.892V81.9029C113.684 85.7447 115.329 93.4837 114.479 108.003C114.384 109.631 115.486 111.05 117.023 111.41V113.053H114.165V129.718H121.74V113.053H118.882V111.308C120.096 110.877 120.999 109.756 121.079 108.388C122.1 90.9322 119.917 79.5436 114.59 74.5383C112.271 72.3596 110.006 71.9852 108.843 71.9575C108.776 71.9534 108.711 71.9476 108.643 71.9476H92.6803C92.6109 71.9476 92.5427 71.9538 92.4745 71.958C91.3102 71.9865 89.0484 72.3629 86.7333 74.5379C81.4065 79.5432 79.2233 90.9322 80.2442 108.388C80.3471 110.145 81.804 111.501 83.541 111.501ZM99.0912 75.3291H100.662H102.231L103.017 78.428L102.897 78.6164C102.25 79.1561 101.458 79.4263 100.661 79.4271C99.8643 79.4263 99.0731 79.1565 98.4264 78.6181L98.3062 78.428L99.0912 75.3291ZM98.997 80.3609C99.5329 80.5617 100.097 80.6667 100.661 80.6662H100.662C100.662 80.6662 100.663 80.6662 100.664 80.6662C101.227 80.6662 101.79 80.5613 102.326 80.3605L104.587 97.0209L100.662 101.979L96.7365 97.0209L98.997 80.3609Z" fill="url(#paint0_linear)"/>
<path d="M100.661 69.5933C105.796 69.5933 109.958 65.4311 109.958 60.2967C109.958 55.1623 105.796 51 100.661 51C95.527 51 91.3647 55.1623 91.3647 60.2967C91.3647 65.4311 95.527 69.5933 100.661 69.5933Z" fill="url(#paint1_linear)"/>
<path d="M145.307 181.638C163.214 171.762 177.345 156.23 185.488 137.471C193.631 118.712 195.328 97.783 190.314 77.9569C185.3 58.1308 173.856 40.5254 157.774 27.8935C141.691 15.2616 121.875 8.31546 101.426 8.14122C80.9762 7.96699 61.0453 14.5745 44.7497 26.9305C28.4541 39.2865 16.7125 56.6944 11.361 76.4322C6.00949 96.17 7.34974 117.125 15.1722 136.02C22.9946 154.915 36.8583 170.685 54.5952 180.865L57.2374 176.261C40.5183 166.666 27.4502 151.8 20.0767 133.99C12.7031 116.179 11.4398 96.4264 16.4842 77.8213C21.5286 59.2162 32.5964 42.8072 47.9569 31.1602C63.3173 19.5133 82.1045 13.285 101.381 13.4492C120.657 13.6134 139.335 20.161 154.495 32.068C169.655 43.975 180.441 60.5701 185.168 79.2585C189.895 97.9468 188.295 117.675 180.619 135.357C172.943 153.04 159.623 167.68 142.743 176.989L145.307 181.638Z" fill="url(#paint2_linear)"/>
<defs>
<linearGradient id="paint0_linear" x1="100.87" y1="71.9476" x2="100.87" y2="149" gradientUnits="userSpaceOnUse">
<stop stop-color="#FF006B"/>
<stop offset="1" stop-color="#FF003D"/>
</linearGradient>
<linearGradient id="paint1_linear" x1="100.661" y1="51" x2="100.661" y2="69.5933" gradientUnits="userSpaceOnUse">
<stop stop-color="#FF006B"/>
<stop offset="1" stop-color="#FF003D"/>
</linearGradient>
<linearGradient id="paint2_linear" x1="192.805" y1="108.479" x2="8.47069" y2="92.7967" gradientUnits="userSpaceOnUse">
<stop stop-color="#FF006B"/>
<stop offset="1" stop-color="#FF003D"/>
</linearGradient>
</defs>
</svg>
