<svg width="59" height="61" viewBox="0 0 59 61" fill="none" xmlns="http://www.w3.org/2000/svg">
<mask id="path-1-inside-1" fill="white">
<path d="M55.5936 47.4222C51.8885 52.946 46.4465 57.0759 40.1294 59.1579C33.8123 61.2399 26.9812 61.1549 20.7178 58.9165C14.4544 56.6781 9.11681 52.4142 5.55018 46.7999C1.98356 41.1857 0.391805 34.5421 1.02698 27.9212C1.66215 21.3002 4.48795 15.0804 9.05689 10.2467C13.6258 5.41291 19.6768 2.24153 26.2514 1.23473C32.8261 0.227926 39.5488 1.44325 45.3549 4.68824C51.1609 7.93323 55.7185 13.0224 58.3059 19.1499L56.1171 20.0741C53.7354 14.4338 49.5402 9.74923 44.1957 6.76222C38.8513 3.77522 32.6631 2.65651 26.6111 3.58327C20.5591 4.51003 14.9892 7.42928 10.7836 11.8787C6.57786 16.3282 3.97672 22.0535 3.39204 28.148C2.80737 34.2426 4.27258 40.358 7.55564 45.5259C10.8387 50.6938 15.752 54.6187 21.5174 56.6792C27.2828 58.7396 33.5708 58.8178 39.3857 56.9014C45.2005 54.9849 50.2099 51.1834 53.6204 46.0987L55.5936 47.4222Z"/>
</mask>
<path d="M55.5936 47.4222C51.8885 52.946 46.4465 57.0759 40.1294 59.1579C33.8123 61.2399 26.9812 61.1549 20.7178 58.9165C14.4544 56.6781 9.11681 52.4142 5.55018 46.7999C1.98356 41.1857 0.391805 34.5421 1.02698 27.9212C1.66215 21.3002 4.48795 15.0804 9.05689 10.2467C13.6258 5.41291 19.6768 2.24153 26.2514 1.23473C32.8261 0.227926 39.5488 1.44325 45.3549 4.68824C51.1609 7.93323 55.7185 13.0224 58.3059 19.1499L56.1171 20.0741C53.7354 14.4338 49.5402 9.74923 44.1957 6.76222C38.8513 3.77522 32.6631 2.65651 26.6111 3.58327C20.5591 4.51003 14.9892 7.42928 10.7836 11.8787C6.57786 16.3282 3.97672 22.0535 3.39204 28.148C2.80737 34.2426 4.27258 40.358 7.55564 45.5259C10.8387 50.6938 15.752 54.6187 21.5174 56.6792C27.2828 58.7396 33.5708 58.8178 39.3857 56.9014C45.2005 54.9849 50.2099 51.1834 53.6204 46.0987L55.5936 47.4222Z" stroke="url(#paint0_linear)" stroke-width="16" mask="url(#path-1-inside-1)"/>
<defs>
<linearGradient id="paint0_linear" x1="48.4598" y1="6.68474" x2="13.0903" y2="54.8653" gradientUnits="userSpaceOnUse">
<stop stop-color="#FF006B"/>
<stop offset="1" stop-color="#FF003D"/>
</linearGradient>
</defs>
</svg>
