<svg width="84" height="84" viewBox="0 0 84 84" fill="none" xmlns="http://www.w3.org/2000/svg">
<mask id="path-1-inside-1" fill="white">
<path d="M66.5935 58.4222C62.8883 63.946 57.4463 68.0759 51.1293 70.1579C44.8122 72.2399 37.981 72.1549 31.7177 69.9165C25.4543 67.6781 20.1167 63.4142 16.5501 57.7999C12.9834 52.1857 11.3917 45.5421 12.0269 38.9212C12.662 32.3002 15.4878 26.0804 20.0568 21.2467C24.6257 16.4129 30.6766 13.2415 37.2513 12.2347C43.826 11.2279 50.5487 12.4433 56.3547 15.6882C62.1608 18.9332 66.7184 24.0224 69.3058 30.1499L67.117 31.0741C64.7353 25.4338 60.5401 20.7492 55.1956 17.7622C49.8511 14.7752 43.6629 13.6565 37.611 14.5833C31.559 15.51 25.9891 18.4293 21.7834 22.8787C17.5777 27.3282 14.9766 33.0535 14.3919 39.148C13.8072 45.2426 15.2725 51.358 18.5555 56.5259C21.8386 61.6938 26.7518 65.6187 32.5173 67.6792C38.2827 69.7396 44.5707 69.8178 50.3856 67.9014C56.2004 65.9849 61.2098 62.1834 64.6203 57.0987L66.5935 58.4222Z"/>
</mask>
<path d="M66.5935 58.4222C62.8883 63.946 57.4463 68.0759 51.1293 70.1579C44.8122 72.2399 37.981 72.1549 31.7177 69.9165C25.4543 67.6781 20.1167 63.4142 16.5501 57.7999C12.9834 52.1857 11.3917 45.5421 12.0269 38.9212C12.662 32.3002 15.4878 26.0804 20.0568 21.2467C24.6257 16.4129 30.6766 13.2415 37.2513 12.2347C43.826 11.2279 50.5487 12.4433 56.3547 15.6882C62.1608 18.9332 66.7184 24.0224 69.3058 30.1499L67.117 31.0741C64.7353 25.4338 60.5401 20.7492 55.1956 17.7622C49.8511 14.7752 43.6629 13.6565 37.611 14.5833C31.559 15.51 25.9891 18.4293 21.7834 22.8787C17.5777 27.3282 14.9766 33.0535 14.3919 39.148C13.8072 45.2426 15.2725 51.358 18.5555 56.5259C21.8386 61.6938 26.7518 65.6187 32.5173 67.6792C38.2827 69.7396 44.5707 69.8178 50.3856 67.9014C56.2004 65.9849 61.2098 62.1834 64.6203 57.0987L66.5935 58.4222Z" stroke="url(#paint0_linear)" stroke-width="16" mask="url(#path-1-inside-1)"/>
<defs>
<linearGradient id="paint0_linear" x1="59.4597" y1="17.6847" x2="24.0902" y2="65.8653" gradientUnits="userSpaceOnUse">
<stop stop-color="white"/>
<stop offset="1" stop-color="white"/>
</linearGradient>
</defs>
</svg>
