<svg width="55" height="75" viewBox="0 0 55 75" fill="none" xmlns="http://www.w3.org/2000/svg">
<path d="M27.125 0C12.1728 0 0 12.1728 0 27.125C0 41.6462 24.9104 72.4572 25.9806 73.7651C26.263 74.1071 26.6791 74.3151 27.125 74.3151C27.571 74.3151 28.002 74.1071 28.2844 73.7651C29.3396 72.4572 54.25 41.6462 54.25 27.125C54.25 12.1728 42.0921 0 27.125 0ZM27.125 38.6438C20.7786 38.6438 15.6062 33.4715 15.6062 27.125C15.6062 20.7786 20.7786 15.6062 27.125 15.6062C33.4715 15.6062 38.6438 20.7786 38.6438 27.125C38.6438 33.4715 33.4715 38.6438 27.125 38.6438Z" fill="url(#paint0_linear)"/>
<defs>
<linearGradient id="paint0_linear" x1="27.125" y1="0" x2="27.125" y2="74.3151" gradientUnits="userSpaceOnUse">
<stop stop-color="#FF006B"/>
<stop offset="1" stop-color="#FF003D"/>
</linearGradient>
</defs>
</svg>
