<svg width="14" height="13" viewBox="0 0 14 13" fill="none" xmlns="http://www.w3.org/2000/svg">
<path fill-rule="evenodd" clip-rule="evenodd" d="M0.180531 3.84283C-0.746392 0.574202 2.18073 -0.303936 2.52223 0.0863476C2.86373 0.525416 4.57122 2.76955 4.57122 2.76955C4.57122 2.76955 5.01029 3.06226 4.32729 3.64768C3.69308 4.23311 3.35158 4.72096 3.35158 4.72096C3.35158 4.72096 3.15644 4.86732 3.54673 5.55032C3.83944 6.08696 6.91292 9.16044 7.44956 9.45315C8.13256 9.84344 8.27891 9.69708 8.27891 9.69708C8.27891 9.69708 8.76677 9.3068 9.35219 8.67258C9.93762 8.03837 10.2791 8.47744 10.2791 8.47744C10.2791 8.47744 12.5232 10.1849 12.9135 10.5264C13.3526 10.8191 12.4745 13.7463 9.15705 12.8193C5.6445 11.8436 1.15624 7.35538 0.180531 3.84283Z" fill="url(#paint0_linear)"/>
<defs>
<linearGradient id="paint0_linear" x1="6.50929" y1="0" x2="6.50929" y2="13" gradientUnits="userSpaceOnUse">
<stop stop-color="white"/>
<stop offset="1" stop-color="white"/>
</linearGradient>
</defs>
</svg>
