<svg width="32" height="32" viewBox="0 0 32 32" fill="none" xmlns="http://www.w3.org/2000/svg">
<path fill-rule="evenodd" clip-rule="evenodd" d="M0.44375 9.44576C-1.83465 1.4114 5.3603 -0.747082 6.19971 0.212244C7.03912 1.29149 11.2362 6.80761 11.2362 6.80761C11.2362 6.80761 12.3154 7.52711 10.6366 8.96609C9.07769 10.4051 8.23828 11.6042 8.23828 11.6042C8.23828 11.6042 7.75861 11.964 8.71794 13.6428C9.43743 14.9619 16.9921 22.5166 18.3112 23.2361C19.99 24.1954 20.3498 23.8357 20.3498 23.8357C20.3498 23.8357 21.5489 22.8763 22.9879 21.3174C24.4269 19.7585 25.2663 20.8378 25.2663 20.8378C25.2663 20.8378 30.7824 25.0348 31.7418 25.8742C32.821 26.5937 30.6625 33.7887 22.5083 31.5103C13.8743 29.1119 2.84207 18.0797 0.44375 9.44576Z" fill="url(#paint0_linear)"/>
<defs>
<linearGradient id="paint0_linear" x1="16" y1="0" x2="16" y2="31.9543" gradientUnits="userSpaceOnUse">
<stop stop-color="#FF006B"/>
<stop offset="1" stop-color="#FF003D"/>
</linearGradient>
</defs>
</svg>
