<svg width="672" height="565" viewBox="0 0 672 565" fill="none" xmlns="http://www.w3.org/2000/svg">
<path d="M1 1L168.39 177.377M1 1L18.2642 81.9312M1 1H52.9801M411.007 564L559.381 526.173M411.007 564L584.621 407.416M411.007 564H493.712M411.007 564L405.038 538.709M536.279 1L525.492 59.9391M536.279 1H644.605M536.279 1L623.183 225.98M200.724 353.755L189.194 290.857M200.724 353.755L305.585 372.448M200.724 353.755L325.81 284.699M200.724 353.755L215.881 284.699M168.39 177.377L56.5455 261.387M168.39 177.377L156.617 113.16M168.39 177.377L189.194 290.857M56.5455 261.387L156.617 113.16M56.5455 261.387L18.2642 81.9312M56.5455 261.387L72.6838 337.041M156.617 113.16L136.056 1H104.96M156.617 113.16L18.2642 81.9312M18.2642 81.9312L189.194 290.857M18.2642 81.9312L104.96 1M189.194 290.857L88.822 412.694M189.194 290.857L156.182 564M189.194 290.857L72.6838 337.041M88.822 412.694L191.266 564M88.822 412.694L104.96 488.347M88.822 412.694L72.6838 337.041M88.822 412.694L305.585 372.448M191.266 564L275.829 501.542M191.266 564H226.35M191.266 564H156.182M275.829 501.542L261.433 564H226.35M275.829 501.542L104.96 488.347M275.829 501.542L305.585 372.448M104.96 488.347L121.098 564H156.182M104.96 488.347L305.585 372.448M305.585 372.448L315.698 328.574M325.81 284.699L335.34 243.354L346.55 290.857M325.81 284.699H215.881M325.81 284.699L315.698 328.574M325.81 284.699L226.35 564M325.81 284.699L156.182 564M215.881 284.699L422.018 129.874M215.881 284.699L257.587 94.6867M215.881 284.699L407.714 65.4371M215.881 284.699L343.699 1M422.018 129.874L257.587 94.6867M422.018 129.874L407.714 65.4371M422.018 129.874L346.55 290.857M422.018 129.874L399.07 513.418M422.018 129.874L456.386 284.699M257.587 94.6867L407.714 65.4371M257.587 94.6867L267.869 47.8434M407.714 65.4371L393.41 1H343.699M343.699 1H278.15L267.869 47.8434M343.699 1L346.55 290.857M346.55 290.857L399.07 513.418M346.55 290.857L456.386 284.699M346.55 290.857L559.381 526.173M399.07 513.418L456.386 284.699M399.07 513.418L590.885 377.946M399.07 513.418L405.038 538.709M456.386 284.699L471.716 353.755L476.224 329.123M559.381 526.173L551.341 564H493.712M559.381 526.173L584.621 407.416M584.621 407.416L493.712 564M584.621 407.416L590.885 377.946M493.712 564L476.224 329.123M476.224 329.123L590.885 377.946M476.224 329.123L487.736 266.226M476.224 329.123L644.605 1M476.224 329.123L613.414 271.944M590.885 377.946L506.251 165.062M590.885 377.946L613.414 271.944M506.251 165.062L655.482 74.0141M506.251 165.062L487.736 266.226M506.251 165.062L525.492 59.9391M655.482 74.0141L671 1H644.605M655.482 74.0141L487.736 266.226M655.482 74.0141L623.183 225.98M487.736 266.226L623.183 225.98M623.183 225.98L525.492 59.9391M623.183 225.98L613.414 271.944M525.492 59.9391L644.605 1M613.414 271.944L405.038 538.709M267.869 47.8434L315.698 328.574M156.182 564L104.96 1M72.6838 337.041L104.96 1M104.96 1H52.9801M52.9801 1V261.387" stroke="white" stroke-opacity="0.4"/>
</svg>
